<?xml version="1.0" encoding="UTF-8" standalone="no"?>
<!-- Created with Inkscape (http://www.inkscape.org/) -->

<svg
   version="1.1"
   id="svg1"
   width="376"
   height="412"
   viewBox="0 0 376 412"
   sodipodi:docname="CYDROWIN - symbol - CMYK.eps"
   xmlns:inkscape="http://www.inkscape.org/namespaces/inkscape"
   xmlns:sodipodi="http://sodipodi.sourceforge.net/DTD/sodipodi-0.dtd"
   xmlns="http://www.w3.org/2000/svg"
   xmlns:svg="http://www.w3.org/2000/svg">
  <defs
     id="defs1" />
  <sodipodi:namedview
     id="namedview1"
     pagecolor="#ffffff"
     bordercolor="#000000"
     borderopacity="0.25"
     inkscape:showpageshadow="2"
     inkscape:pageopacity="0.0"
     inkscape:pagecheckerboard="0"
     inkscape:deskcolor="#d1d1d1">
    <inkscape:page
       x="0"
       y="0"
       inkscape:label="1"
       id="page1"
       width="376"
       height="412"
       margin="0"
       bleed="0" />
  </sodipodi:namedview>
  <g
     id="g1"
     inkscape:groupmode="layer"
     inkscape:label="1">
    <path
       id="path1"
       d="M 1587.65,32.8242 C 2285.13,-152.836 2818.03,672.703 2818.03,1315.49 c 0,696.55 -427.85,1489.04 -1408.58,924.44 C 428.73,2804.53 0.878906,2012.04 0.878906,1315.49 0.878906,672.621 533.902,-153.047 1231.48,32.8906 1353.44,64.3047 1361.21,299.566 1361.21,395.605 v 412.696 c 0,76.594 -26.76,124.625 -90.02,168.933 -132.94,93.126 -365.405,271.586 -318.135,467.616 51.555,213.99 108.535,426.43 166.555,638.42 193.23,0 386.44,0 579.66,0 58.02,-211.99 115.02,-424.43 166.56,-638.42 47.27,-196.03 -185.2,-374.49 -318.14,-467.616 -63.25,-44.308 -90.02,-92.339 -90.02,-168.933 V 395.605 c 0,-95.796 7.79,-331.8081 129.98,-362.7808 z M 2210.99,2503.13 c 84.67,115.18 130.41,274.37 137.75,476.91 -270.96,32.54 -477.42,-8.1 -618.09,-123.31 -118.99,-97.44 -193.22,-250.24 -222.02,-459.16 -32.49,-15.27 -68.36,-33.57 -102,-51.84 22.15,220.36 85.53,439.44 263.39,585.11 169.54,138.86 414.76,184.37 734.14,138.32 l 41.39,-5.97 -0.41,-41.74 c -2.3,-228.86 -48.46,-412.06 -139.09,-548.96 -30.54,12.19 -62.22,22.46 -95.06,30.64"
       style="fill:#7f1329;fill-opacity:1;fill-rule:evenodd;stroke:none"
       transform="matrix(0.13333333,0,0,-0.13333333,0,412)" />
  </g>
</svg>
